<svg xmlns="http://www.w3.org/2000/svg" xmlns:xlink="http://www.w3.org/1999/xlink" contentStyleType="text/css" height="810px" preserveAspectRatio="none" style="width:505px;height:810px;background:#303030;" version="1.1" viewBox="0 0 505 810" width="505px" zoomAndPan="magnify"><defs/><g><rect fill="#303030" height="810" style="stroke:none;stroke-width:1.0;" width="505" x="0" y="0"/><rect fill="#303030" height="276.3359" rx="2.5" ry="2.5" style="stroke:#F8D8B0;stroke-width:1.5;" width="308" x="23" y="11"/><path d="M100,11 L100,20.2969 L90,30.2969 L23,30.2969 " fill="none" style="stroke:#F8D8B0;stroke-width:1.5;"/><text fill="#F8D8B0" font-family="sans-serif" font-size="14" lengthAdjust="spacing" textLength="67" x="26" y="24.9951">BEGINING</text><path d="M43,130.2656 L43,170.5313 L187,170.5313 L187,140.2656 L177,130.2656 L43,130.2656 " fill="#E0C080" style="stroke:#303030;stroke-width:1.0;"/><path d="M177,130.2656 L177,140.2656 L187,140.2656 L177,130.2656 " fill="#E0C080" style="stroke:#303030;stroke-width:1.0;"/><text fill="#303030" font-family="sans-serif" font-size="13" lengthAdjust="spacing" textLength="123" x="49" y="147.3325">Can be some other</text><text fill="#303030" font-family="sans-serif" font-size="13" lengthAdjust="spacing" textLength="101" x="49" y="162.4653">scenario too lol.</text><ellipse cx="259" cy="50.2969" fill="#F8D8B0" rx="10" ry="10" style="stroke:#222222;stroke-width:1.0;"/><rect fill="#F8D8B0" height="29.9688" rx="10" ry="10" style="stroke:#303030;stroke-width:0.5;" width="124" x="197" y="80.2969"/><text fill="#303030" font-family="sans-serif" font-size="12" lengthAdjust="spacing" textLength="108" x="205" y="99.4355">intro to the world</text><rect fill="#F8D8B0" height="29.9688" rx="10" ry="10" style="stroke:#303030;stroke-width:0.5;" width="123" x="197.5" y="130.4297"/><text fill="#303030" font-family="sans-serif" font-size="12" lengthAdjust="spacing" textLength="107" x="205.5" y="149.5684">wake up disaster</text><rect fill="#F8D8B0" height="29.9688" rx="10" ry="10" style="stroke:#303030;stroke-width:0.5;" width="92" x="213" y="195.3984"/><text fill="#303030" font-family="sans-serif" font-size="12" lengthAdjust="spacing" textLength="76" x="221" y="214.5371">choose ship</text><rect fill="#F8D8B0" height="29.9688" rx="10" ry="10" style="stroke:#303030;stroke-width:0.5;" width="62" x="228" y="245.3672"/><text fill="#303030" font-family="sans-serif" font-size="12" lengthAdjust="spacing" textLength="46" x="236" y="264.5059">escape</text><rect fill="#303030" height="359.8511" rx="2.5" ry="2.5" style="stroke:#F8D8B0;stroke-width:1.5;" width="483" x="11" y="297.3359"/><path d="M98,297.3359 L98,306.6328 L88,316.6328 L11,316.6328 " fill="none" style="stroke:#F8D8B0;stroke-width:1.5;"/><text fill="#F8D8B0" font-family="sans-serif" font-size="14" lengthAdjust="spacing" textLength="77" x="14" y="311.3311">TUTORIALS</text><rect fill="#F8D8B0" height="29.9688" rx="10" ry="10" style="stroke:#303030;stroke-width:0.5;" width="181" x="168.5" y="333.6328"/><text fill="#303030" font-family="sans-serif" font-size="12" lengthAdjust="spacing" textLength="165" x="176.5" y="352.7715">get minimal cargo storage</text><line style="stroke:#FFB090;stroke-width:1.5;" x1="132.5" x2="351.5" y1="439.312" y2="439.312"/><rect fill="#F8D8B0" height="29.9688" rx="10" ry="10" style="stroke:#303030;stroke-width:0.5;" width="90" x="87.5" y="459.312"/><text fill="#303030" font-family="sans-serif" font-size="12" lengthAdjust="spacing" textLength="74" x="95.5" y="478.4507">mining intro</text><rect fill="#F8D8B0" height="29.9688" rx="10" ry="10" style="stroke:#303030;stroke-width:0.5;" width="140" x="62.5" y="516.2651"/><text fill="#303030" font-family="sans-serif" font-size="12" lengthAdjust="spacing" textLength="124" x="70.5" y="535.4038">rent production line</text><rect fill="#F8D8B0" height="29.9688" rx="10" ry="10" style="stroke:#303030;stroke-width:0.5;" width="157" x="54" y="573.2183"/><text fill="#303030" font-family="sans-serif" font-size="12" lengthAdjust="spacing" textLength="141" x="62" y="592.3569">make e.g. basic ammo</text><rect fill="#F8D8B0" height="43.9375" rx="10" ry="10" style="stroke:#303030;stroke-width:0.5;" width="225" x="239" y="509.2808"/><text fill="#303030" font-family="sans-serif" font-size="12" lengthAdjust="spacing" textLength="182" x="247" y="528.4194">minimal combat mission intro</text><text fill="#303030" font-family="sans-serif" font-size="12" lengthAdjust="spacing" textLength="209" x="247" y="542.3882">(e.g. clear derelict rogue drones)</text><line style="stroke:#FFB090;stroke-width:1.5;" x1="132.5" x2="351.5" y1="623.187" y2="623.187"/><polygon fill="#F8D8B0" points="227,383.6016,291,383.6016,303,395.6016,291,407.6016,227,407.6016,215,395.6016,227,383.6016" style="stroke:#303030;stroke-width:0.5;"/><text fill="#F8D8B0" font-family="sans-serif" font-size="11" lengthAdjust="spacing" textLength="20" x="263" y="417.812">yes</text><text fill="#303030" font-family="sans-serif" font-size="11" lengthAdjust="spacing" textLength="64" x="227" y="399.4097">do tutorial?</text><rect fill="#F8D8B0" height="29.9688" rx="10" ry="10" style="stroke:#303030;stroke-width:0.5;" width="220" x="149" y="677.187"/><text fill="#303030" font-family="sans-serif" font-size="12" lengthAdjust="spacing" textLength="204" x="157" y="696.3257">training wheels start to come off</text><rect fill="#F8D8B0" height="29.9688" rx="10" ry="10" style="stroke:#303030;stroke-width:0.5;" width="62" x="228" y="727.1558"/><text fill="#303030" font-family="sans-serif" font-size="12" lengthAdjust="spacing" textLength="46" x="236" y="746.2944">wheee!</text><ellipse cx="259" cy="788.1245" fill="none" rx="11" ry="11" style="stroke:#F8D8B0;stroke-width:1.0;"/><ellipse cx="259" cy="788.1245" fill="#222222" rx="6" ry="6" style="stroke:#F8D8B0;stroke-width:1.0;"/><line style="stroke:#FFB090;stroke-width:1.0;" x1="259" x2="259" y1="60.2969" y2="80.2969"/><polygon fill="#FFB090" points="255,70.2969,259,80.2969,263,70.2969,259,74.2969" style="stroke:#FFB090;stroke-width:1.0;"/><line style="stroke:#FFB090;stroke-width:1.0;" x1="259" x2="259" y1="110.2656" y2="130.4297"/><polygon fill="#FFB090" points="255,120.4297,259,130.4297,263,120.4297,259,124.4297" style="stroke:#FFB090;stroke-width:1.0;"/><line style="stroke:#FFB090;stroke-width:1.0;" x1="259" x2="259" y1="160.3984" y2="195.3984"/><polygon fill="#FFB090" points="255,185.3984,259,195.3984,263,185.3984,259,189.3984" style="stroke:#FFB090;stroke-width:1.0;"/><line style="stroke:#FFB090;stroke-width:1.0;" x1="259" x2="259" y1="225.3672" y2="245.3672"/><polygon fill="#FFB090" points="255,235.3672,259,245.3672,263,235.3672,259,239.3672" style="stroke:#FFB090;stroke-width:1.0;"/><line style="stroke:#FFB090;stroke-width:1.0;" x1="132.5" x2="132.5" y1="489.2808" y2="516.2651"/><polygon fill="#FFB090" points="128.5,506.2651,132.5,516.2651,136.5,506.2651,132.5,510.2651" style="stroke:#FFB090;stroke-width:1.0;"/><line style="stroke:#FFB090;stroke-width:1.0;" x1="132.5" x2="132.5" y1="546.2339" y2="573.2183"/><polygon fill="#FFB090" points="128.5,563.2183,132.5,573.2183,136.5,563.2183,132.5,567.2183" style="stroke:#FFB090;stroke-width:1.0;"/><line style="stroke:#FFB090;stroke-width:1.0;" x1="132.5" x2="132.5" y1="440.812" y2="459.312"/><polygon fill="#FFB090" points="128.5,449.312,132.5,459.312,136.5,449.312,132.5,453.312" style="stroke:#FFB090;stroke-width:1.0;"/><line style="stroke:#FFB090;stroke-width:1.0;" x1="351.5" x2="351.5" y1="440.812" y2="509.2808"/><polygon fill="#FFB090" points="347.5,499.2808,351.5,509.2808,355.5,499.2808,351.5,503.2808" style="stroke:#FFB090;stroke-width:1.0;"/><line style="stroke:#FFB090;stroke-width:1.0;" x1="132.5" x2="132.5" y1="603.187" y2="623.187"/><polygon fill="#FFB090" points="128.5,613.187,132.5,623.187,136.5,613.187,132.5,617.187" style="stroke:#FFB090;stroke-width:1.0;"/><line style="stroke:#FFB090;stroke-width:1.0;" x1="351.5" x2="351.5" y1="553.2183" y2="623.187"/><polygon fill="#FFB090" points="347.5,613.187,351.5,623.187,355.5,613.187,351.5,617.187" style="stroke:#FFB090;stroke-width:1.0;"/><line style="stroke:#FFB090;stroke-width:1.0;" x1="259" x2="259" y1="407.6016" y2="439.312"/><polygon fill="#FFB090" points="255,429.312,259,439.312,263,429.312,259,433.312" style="stroke:#FFB090;stroke-width:1.0;"/><line style="stroke:#FFB090;stroke-width:1.0;" x1="259" x2="259" y1="624.687" y2="633.187"/><line style="stroke:#FFB090;stroke-width:1.0;" x1="259" x2="478" y1="633.187" y2="633.187"/><polygon fill="#FFB090" points="474,522.8472,478,512.8472,482,522.8472,478,518.8472" style="stroke:#FFB090;stroke-width:1.0;"/><line style="stroke:#FFB090;stroke-width:1.0;" x1="478" x2="478" y1="395.6016" y2="633.187"/><line style="stroke:#FFB090;stroke-width:1.0;" x1="478" x2="303" y1="395.6016" y2="395.6016"/><polygon fill="#FFB090" points="313,391.6016,303,395.6016,313,399.6016,309,395.6016" style="stroke:#FFB090;stroke-width:1.0;"/><line style="stroke:#FFB090;stroke-width:1.0;" x1="215" x2="28" y1="395.6016" y2="395.6016"/><polygon fill="#FFB090" points="24,508.8472,28,518.8472,32,508.8472,28,512.8472" style="stroke:#FFB090;stroke-width:1.0;"/><line style="stroke:#FFB090;stroke-width:1.0;" x1="28" x2="28" y1="395.6016" y2="645.187"/><line style="stroke:#FFB090;stroke-width:1.0;" x1="28" x2="259" y1="645.187" y2="645.187"/><line style="stroke:#FFB090;stroke-width:1.0;" x1="259" x2="259" y1="645.187" y2="677.187"/><polygon fill="#FFB090" points="255,667.187,259,677.187,263,667.187,259,671.187" style="stroke:#FFB090;stroke-width:1.0;"/><line style="stroke:#FFB090;stroke-width:1.0;" x1="259" x2="259" y1="363.6016" y2="383.6016"/><polygon fill="#FFB090" points="255,373.6016,259,383.6016,263,373.6016,259,377.6016" style="stroke:#FFB090;stroke-width:1.0;"/><line style="stroke:#FFB090;stroke-width:1.0;" x1="259" x2="259" y1="275.3359" y2="333.6328"/><polygon fill="#FFB090" points="255,323.6328,259,333.6328,263,323.6328,259,327.6328" style="stroke:#FFB090;stroke-width:1.0;"/><line style="stroke:#FFB090;stroke-width:1.0;" x1="259" x2="259" y1="707.1558" y2="727.1558"/><polygon fill="#FFB090" points="255,717.1558,259,727.1558,263,717.1558,259,721.1558" style="stroke:#FFB090;stroke-width:1.0;"/><line style="stroke:#FFB090;stroke-width:1.0;" x1="259" x2="259" y1="757.1245" y2="777.1245"/><polygon fill="#FFB090" points="255,767.1245,259,777.1245,263,767.1245,259,771.1245" style="stroke:#FFB090;stroke-width:1.0;"/><!--SRC=[PL9DJyCm3BttLtYtxLBkxG41GjCaD2GOP-GbNcijYQiaLOKG_vqadVO1kJJsSz_pixDWfyoe2UgxqPhFS6Gte4SRgYfz8qSM1u_Fwyrsirt3TmNf78nWPDU1aqWbayyJEjWJ1B444dloPoGeSkXP88g04LCNX9oU2KeKOb8hjuPTzBaM4WbCuerkPs328y4uWEQ08P8_fLKl4f9mpyCfGq7XG6trSsrYzx5xVTiylBoVN3GTHR3isA81XRwJr8HuxDAFfM3gsH0iTMfaJ02ZkLy11rX-KLXTp0s6upagn9aqJQVuQ6yXJox2u4MFgZHbsD6V4fjTKjtLiCV02j3QAvOY1zWXk_-YnOdOFMPZ8MI1qiHDvR9mAqFeGPCdmog2bsuaq5vSydPHopkw64nHcKcUQnCzpZQddiY4UO5vQweyWCEXhPeCqQAjqbo7Nm00]--></g></svg>